<svg width="694" height="875" viewBox="0 0 694 875" fill="none" xmlns="http://www.w3.org/2000/svg">
<path d="M7.55275 -144.139C53.2296 -168.647 99.8934 -193.516 150.773 -203.297C201.653 -213.078 258.429 -205.386 294.885 -171.339C339.848 -129.338 341.995 -55.6286 310.58 -1.38033C279.164 52.8679 220.676 89.0873 159.63 108.29C126.516 118.711 82.2633 120.78 66.669 91.5868C51.1192 62.5155 77.7927 27.6991 105.806 7.64273C152.442 -25.7391 208.794 -46.1045 265.993 -50.2274C298.277 -52.5524 331.659 -49.5576 359.884 -35.2849C388.097 -20.9882 410.324 6.05425 412.099 37.0687C414.98 87.4667 367.878 126.996 327.652 160.736C277.93 202.447 232.14 248.56 191.096 298.243C169.469 324.426 148.767 352.342 139.068 384.222C129.369 416.101 132.377 452.918 154.524 477.366C190.509 517.09 261.203 507.772 305.981 474.636C350.76 441.5 377.896 391.639 410.225 347.078C433.52 314.978 473.224 281.568 509.164 297.555C535.209 309.154 543.06 341.595 540.114 369.503C535.079 417.412 506.178 463.184 464.006 490.079C427.448 513.401 383.669 522.201 342.293 535.527C300.917 548.853 258.346 569.502 237.194 606.441C217.358 641.083 221.651 686.565 247.508 715.829C273.366 745.094 319.12 756.247 357.553 742.636C414.503 722.486 441.763 661.413 468.974 609.039C496.204 556.658 543.116 500.192 602.624 506.173C639.493 509.864 669.23 538.972 680.273 572.829C691.316 606.687 686.155 644.225 674.255 678.528C637.46 784.5 532.796 867.25 418.315 880.872" stroke="#D19727" stroke-width="14" stroke-miterlimit="10" stroke-linecap="round"/>
</svg>
