<svg width="1113" height="873" viewBox="0 0 1113 873" fill="none" xmlns="http://www.w3.org/2000/svg">
<path d="M175.367 869.445C125.097 830.969 73.9277 791.578 37.4253 739.901C0.92287 688.225 -19.1065 621.194 0.422931 563.501C24.5212 492.341 105.459 452.849 181.642 460.49C257.825 468.13 327.578 514.961 379.684 573.205C407.953 604.796 432.537 652.982 407.904 685.025C383.385 716.957 331.213 704.81 294.79 683.743C234.162 648.667 183.126 596.231 149.738 534.677C130.895 499.933 117.419 461.291 119.089 422.708C120.792 384.127 139.692 345.79 173.309 328.202C227.94 299.63 295.642 332.128 353.44 359.894C424.891 394.209 499.259 421.935 575.21 442.585C615.234 453.463 656.722 462.441 697.079 457.183C737.436 451.925 776.89 430.046 792.943 393.103C819.027 333.077 773.062 259.125 713.644 225.992C654.225 192.86 585.079 187.771 519.216 174.238C471.767 164.482 414.598 137.132 414.292 89.104C414.084 54.2931 446.229 29.2292 478.768 18.4576C534.613 -0.0572166 600.099 9.05343 651.26 42.4282C695.618 71.3569 727.454 115.628 763.116 154.947C798.779 194.267 843.192 231.23 894.945 236.166C943.481 240.795 991.929 213.125 1011.47 169.629C1031.02 126.134 1020.39 69.6217 985.893 33.719C934.796 -19.4899 853.111 -19.0729 781.131 -22.9796C709.134 -26.9032 622.679 -50.6663 599.372 -119.875C584.915 -162.748 602.331 -210.48 634.446 -239.807C666.56 -269.135 710.93 -282.288 755.092 -286.317C891.539 -298.729 1036.32 -223.952 1109.12 -103.458" stroke="#CD4E07" stroke-width="7" stroke-miterlimit="10" stroke-linecap="round"/>
</svg>
