<svg width="1440" height="875" viewBox="0 0 1440 875" fill="none" xmlns="http://www.w3.org/2000/svg">
<g style="mix-blend-mode:color-dodge">
<path d="M1898.9 486.185C1885.37 579.504 1871.29 674.649 1828.74 758.8C1786.19 842.95 1709.54 915.826 1614.66 929.723C1497.63 946.851 1379.57 866.635 1330.23 760.194C1280.89 653.753 1290.62 528.794 1329.95 419.39C1351.28 360.039 1398.39 294.125 1461.92 304.714C1525.2 315.229 1549.46 392.896 1549.05 455.808C1548.35 560.534 1516.18 664.508 1457.57 751.342C1424.49 800.351 1381.81 844.925 1327.31 869.345C1272.79 893.72 1205.09 895.09 1154.42 862.59C1072.1 809.772 1063.69 697.43 1056.54 601.509C1047.68 482.936 1027.45 365.037 996.222 249.923C979.761 189.263 959.529 127.972 920.562 78.0103C881.595 28.0484 820.426 -9.23828 756.884 -5.04996C653.639 1.75447 587.825 113.848 588.852 215.627C589.88 317.406 637.211 412.741 670.321 509.546C694.166 579.29 701.395 674.089 635.431 707.655C587.609 731.964 527.794 706.581 487.372 670.809C417.957 609.432 379.048 516.182 384.844 425.201C389.857 346.324 425.862 273.484 452.035 198.98C478.207 124.476 494.254 39.9795 460.382 -32.1532C428.615 -99.8018 352.395 -145.034 277.076 -140.959C201.757 -136.883 132.21 -83.754 109.832 -13.1571C76.6442 91.4312 141.42 199.616 192.608 297.898C243.786 396.215 278.978 527.427 201.894 606.159C154.157 654.955 74.6712 664.782 9.00368 642.384C-56.6638 619.986 -109.668 570.146 -149.932 514.284C-274.282 341.66 -284.994 97.776 -176.115 -82.0886" stroke="#F1CFD3" stroke-width="20" stroke-miterlimit="10" stroke-linecap="round"/>
</g>
</svg>
