<svg width="584" height="428" viewBox="0 0 584 428" fill="none" xmlns="http://www.w3.org/2000/svg">
<rect width="277" height="428" transform="translate(153.5)" fill="#F1CFD3"/>
<path d="M477.685 321.496H474.47V309.343H419.255V320.351H416.041V306.126H477.685V321.496Z" fill="#CD4E07"/>
<path d="M280.73 263.067C282.196 262.057 333.663 242.924 333.663 242.924L332.307 256.434L330.378 275.851L329.453 285.018L329.298 286.614L328.707 292.539L328.63 293.24L328.27 296.837L323.988 298.284L320.343 299.494C320.343 299.494 317.913 297.396 314.256 294.212L313.78 293.794C311.099 291.458 307.821 288.589 304.381 285.552C301.925 283.391 299.386 281.126 296.924 278.926C287.995 270.916 280.075 263.543 280.73 263.067Z" fill="#F1CFD3"/>
<path d="M261.406 233.911H261.417L261.412 233.916L261.406 233.911Z" fill="#CD4E07"/>
<path d="M314.456 73.5295L262.95 69.7209L264.911 43.1955L249.386 25.1816L317.638 30.2191C317.638 30.2191 314.925 73.1113 314.456 73.5295Z" fill="#D19727"/>
<path d="M129.775 223.135L131.132 274.802L104.562 275.503L88.208 292.752L86.3887 224.299C86.3887 224.299 129.319 222.71 129.775 223.135Z" fill="#D19727"/>
<path d="M192.499 329.809L192.57 329.693C186.707 326.193 187.948 320.975 187.999 320.75L187.357 320.596C187.073 322.194 187.235 323.84 187.826 325.352C188.417 326.864 189.414 328.184 190.706 329.165C185.422 327.583 181.59 328.843 181.378 328.914L181.59 329.525C181.654 329.525 188.276 327.312 196.042 332.382L196.389 331.848C195.164 331.04 193.861 330.356 192.499 329.809Z" fill="#CD4E07"/>
<path d="M335.986 312.728C335.849 310.544 334.886 308.495 333.293 306.996C331.7 305.498 329.597 304.662 327.41 304.66H326.87C324.629 304.782 322.524 305.776 321.006 307.431C319.488 309.085 318.676 311.268 318.745 313.513C318.814 315.758 319.758 317.887 321.375 319.445C322.991 321.003 325.153 321.867 327.397 321.851H327.937C330.213 321.708 332.34 320.667 333.849 318.957C335.358 317.246 336.127 315.005 335.986 312.728ZM329.782 314.619L330.245 319.946L326.742 316.015L319.58 314.658C319.527 314.36 319.491 314.059 319.471 313.757C319.342 311.652 320.053 309.581 321.447 307.999C322.841 306.417 324.805 305.452 326.909 305.316H327.417C328.639 305.317 329.844 305.601 330.938 306.146C332.032 306.691 332.985 307.481 333.723 308.456L329.782 314.619Z" fill="#CD4E07"/>
<path d="M327.403 61.7109L326.908 85.6372L326.863 87.6251L326.008 129.025L325.956 131.463L325.68 144.665L325.654 146.048L324.986 178.228L324.954 179.908L324.169 217.756L324.137 219.055L323.931 229.13L323.893 230.803L323.79 235.911L268.504 257.83L260.951 259.85L259.305 260.288L235.77 266.573L234.355 266.947L223.89 269.745L222.122 270.215L132.996 294.019L132.025 290.976L131.633 289.753L126.895 274.911L110.476 223.469L106.915 212.307L110.56 212.365L134.05 212.744L135.741 212.77L202.624 213.844H202.63L204.192 213.87L222.418 214.166L223.954 214.185L246.981 214.558L249.636 170.856L249.713 169.575L252.838 118.268L252.915 116.968L254.348 93.4089L254.458 91.5946L256.238 62.2964L263.503 62.2385L315.51 61.8074L327.403 61.7109Z" fill="#CD4E07"/>
<path d="M406.784 379.636C405.376 378.774 404.361 378.144 403.994 377.893L403.576 377.61C400.587 375.564 398.003 373.788 395.946 370.739C393.918 367.669 392.546 364.212 391.915 360.587C390.919 355.215 391.439 349.746 391.954 344.458L392.037 343.551C392.41 339.639 392.86 334.479 393.04 329.294C393.477 316.498 392.249 305.805 389.292 296.605C385.435 284.568 378.087 274.577 368.078 267.712C362.594 263.942 351.19 259.722 343.096 257.245L342.929 257.786C349.016 259.631 354.984 261.846 360.801 264.418L345.591 297.57C342.826 294.73 339.765 292.194 336.462 290.005C336.327 289.927 336.096 289.812 335.961 290.043C335.826 290.275 336.044 290.423 336.166 290.5C340.795 293.44 380.749 321.027 358.666 384.333H358.731C354.295 388.38 346.799 395.759 347.892 398.487C348.201 399.265 349.12 399.619 350.624 399.535C359.586 399.04 368.168 389.731 369.453 388.277C371.871 389.859 391.876 402.816 399.848 402.816C400.428 402.834 401.006 402.74 401.551 402.54C401.851 402.462 402.12 402.294 402.322 402.058C402.523 401.822 402.647 401.53 402.676 401.221C402.741 399.555 399.462 396.91 395.329 394.285C401.866 397.341 408.687 400.076 411.979 400.076C412.547 400.121 413.115 399.976 413.592 399.664C413.711 399.567 413.803 399.442 413.86 399.301C413.917 399.159 413.938 399.005 413.92 398.853C413.791 397.689 411.394 395.714 408.179 393.558C414.762 396.814 420.908 399.407 422.174 398.461C422.284 398.383 422.372 398.276 422.427 398.153C422.482 398.03 422.504 397.894 422.489 397.76C422.393 396.473 418.825 393.79 414.595 391.088C420.175 393.797 425.524 395.926 426.629 394.807C426.706 394.73 426.765 394.637 426.799 394.534C426.834 394.432 426.844 394.322 426.829 394.215C426.578 392.092 417.044 385.954 406.784 379.636ZM426.231 394.433C425.022 395.649 415.649 391.217 407.318 386.713C404.104 384.886 401.532 383.496 400.793 383.078L400.516 383.574C401.269 384.011 403.853 385.504 407.119 387.254C414.402 391.448 421.808 396.209 421.904 397.805C421.911 397.846 421.905 397.887 421.888 397.925C421.871 397.963 421.843 397.995 421.808 398.017C420.522 398.982 411.612 394.832 402.426 390.001C397.103 386.868 391.696 384.063 390.559 383.484L390.289 383.979C391.465 384.622 396.267 387.382 401.809 390.31C407.659 393.739 413.161 397.386 413.329 398.924C413.338 398.982 413.332 399.041 413.31 399.095C413.289 399.15 413.253 399.197 413.206 399.233C411.124 400.957 398.89 395.495 389.209 390.657C384.914 388.27 381.025 386.353 380.086 385.896L379.823 386.398C380.832 386.951 384.4 388.888 388.881 391.146C395.361 394.762 402.169 399.111 402.085 401.182C402.085 401.311 402.085 401.703 401.301 402.012C395.071 404.476 369.801 387.858 369.511 387.659L369.299 387.524L369.138 387.717C369.048 387.82 359.984 398.442 350.547 398.969C349.313 399.033 348.58 398.802 348.368 398.274C347.275 395.527 357.85 385.69 362.022 382.133L361.656 381.701C361.341 381.972 360.518 382.679 359.438 383.632C375.188 337.548 358.152 310.405 345.983 297.963L361.283 264.624C363.516 265.624 365.665 266.801 367.711 268.143C377.598 274.937 384.85 284.826 388.688 296.747C391.632 305.882 392.847 316.511 392.41 329.243C392.23 334.389 391.767 339.536 391.407 343.467L391.324 344.374C390.809 349.701 390.282 355.208 391.324 360.657C391.966 364.359 393.366 367.888 395.438 371.022C397.553 374.161 400.182 375.963 403.223 378.047L403.634 378.33C404.014 378.588 405.036 379.218 406.45 380.087C411.786 383.374 425.974 392.105 426.224 394.24C426.237 394.251 426.247 394.264 426.255 394.279C426.262 394.293 426.266 394.309 426.267 394.326C426.267 394.342 426.264 394.359 426.258 394.374C426.252 394.389 426.243 394.403 426.231 394.414V394.433Z" fill="#CD4E07"/>
<path d="M338.634 319.515C338.634 319.515 343.031 329.674 335.419 329.905C327.808 330.137 329.132 327.062 329.132 327.062L337.001 318.698L338.634 319.515Z" fill="#F1CFD3"/>
<path d="M337.045 318.056L317.467 337.759L317.923 338.212L337.501 318.51L337.045 318.056Z" fill="#CD4E07"/>
<path d="M341.115 330.555C341.875 330.555 342.491 329.938 342.491 329.178C342.491 328.418 341.875 327.801 341.115 327.801C340.355 327.801 339.739 328.418 339.739 329.178C339.739 329.938 340.355 330.555 341.115 330.555Z" fill="#F1CFD3"/>
<path d="M204.192 213.87C194.549 227.214 184 234.226 172.692 234.767C172.229 234.767 171.76 234.799 171.297 234.799C154.685 234.799 140.665 220.709 134.062 212.745H135.753C142.658 220.877 156.524 234.233 172.634 233.454C183.344 232.939 193.398 226.377 202.636 213.819L204.192 213.87Z" fill="#0A0220"/>
<path d="M285.237 114.858C283.424 115.407 281.592 115.89 279.74 116.306C291.216 125.908 303.78 134.126 317.174 140.792C320.355 137.059 323.297 133.129 325.981 129.025L325.93 131.463C323.616 134.904 321.123 138.219 318.46 141.397C320.817 142.537 323.228 143.627 325.692 144.665V146.048C322.94 144.894 320.251 143.68 317.624 142.407C314.079 146.525 310.188 150.333 305.995 153.787C295.471 162.396 283.694 167.903 270.978 170.154C266.654 170.911 262.273 171.29 257.883 171.287C255.141 171.288 252.401 171.144 249.674 170.856L249.751 169.569C256.769 170.319 263.858 170.083 270.811 168.868C283.983 166.526 300.743 159.636 316.377 141.789C302.697 134.953 289.879 126.513 278.191 116.647C272.143 117.898 265.982 118.522 259.805 118.506C257.517 118.506 255.207 118.425 252.875 118.262L252.952 116.975C260.952 117.552 268.993 117.072 276.867 115.547C274.972 113.925 273.17 112.336 271.46 110.779C265.459 105.302 259.759 99.5038 254.386 93.4089L254.495 91.5946C260.1 98.0107 266.062 104.104 272.354 109.847C274.282 111.59 276.301 113.385 278.461 115.212C293.338 111.918 307.085 104.759 318.318 94.4576C321.363 91.6904 324.242 88.7451 326.939 85.6372L326.894 87.6252C324.464 90.3564 321.889 92.955 319.18 95.4097C309.46 104.35 297.861 110.996 285.237 114.858Z" fill="#0A0220"/>
<path d="M223.96 214.185C217.247 224.067 209.869 233.48 201.877 242.358C186.198 259.728 161.872 281.441 132.031 290.976L131.639 289.754C161.21 280.309 185.33 258.75 200.907 241.502C208.68 232.876 215.868 223.739 222.423 214.153L223.96 214.185Z" fill="#0A0220"/>
<path d="M309.461 207.636C309.833 210.715 310.819 213.688 312.36 216.379C316.86 216.694 320.884 217.216 324.202 217.756L324.17 219.043C321.077 218.528 317.329 218.033 313.151 217.704C315.967 222.208 319.978 226.068 323.964 229.118L323.925 230.79C319.354 227.368 314.636 222.922 311.544 217.595C296.874 216.649 277.414 218.013 261.574 228.255C252.111 234.374 244.924 243.001 240.064 253.989C246.39 252.664 253.397 254.633 260.983 259.812L259.337 260.249C252.054 255.495 245.387 253.887 239.409 255.456C237.927 259.055 236.711 262.758 235.77 266.535L234.356 266.908C235.253 263.185 236.411 259.531 237.821 255.971C231.476 258.3 226.944 264.103 223.89 269.713L222.122 270.183C225.336 263.897 230.434 257.065 237.924 254.562L238.464 254.395C243.414 242.705 250.903 233.582 260.854 227.149C276.669 216.92 296.006 215.395 310.785 216.212C309.392 213.565 308.499 210.684 308.149 207.713C307.069 197.876 312.733 187.949 324.986 178.164V179.843C313.639 189.178 308.419 198.488 309.461 207.636Z" fill="#0A0220"/>
<path d="M497.612 319.888H400.457V359.789H497.612V319.888Z" fill="#CD4E07"/>
<path d="M427.586 344.085C427.586 344.149 427.586 344.22 427.586 344.284C427.571 345.154 427.448 346.018 427.219 346.858C426.609 349.152 425.258 351.181 423.377 352.628C421.497 354.075 419.191 354.86 416.818 354.861C416.542 354.861 416.265 354.861 415.995 354.829C415.725 354.797 415.391 354.771 415.095 354.726C413.203 354.421 411.427 353.615 409.952 352.39C409.714 352.191 409.483 351.985 409.264 351.747C407.873 350.386 406.88 348.671 406.391 346.787C406.391 346.69 406.339 346.587 406.32 346.485C405.967 344.956 405.952 343.368 406.278 341.833C406.603 340.298 407.261 338.853 408.204 337.6C408.384 337.362 408.57 337.13 408.769 336.905C409.78 335.769 411.02 334.861 412.408 334.241C413.795 333.621 415.299 333.304 416.818 333.309C417.747 333.307 418.672 333.428 419.569 333.669C420.498 333.906 421.387 334.274 422.212 334.763C423.663 335.602 424.898 336.77 425.818 338.172C426.004 338.462 426.185 338.764 426.345 339.073C427.162 340.617 427.588 342.338 427.586 344.085Z" fill="#F1CFD3"/>
<path d="M488.992 343.904C488.994 346.438 488.117 348.894 486.51 350.853C486.311 351.11 486.097 351.355 485.867 351.586C484.475 353.013 482.719 354.032 480.789 354.532C480.475 354.616 480.158 354.682 479.838 354.732C479.245 354.83 478.645 354.88 478.044 354.88C475.202 354.886 472.471 353.78 470.432 351.798C470.17 351.55 469.923 351.286 469.693 351.007C468.476 349.58 467.648 347.863 467.289 346.021C467.225 345.708 467.178 345.393 467.147 345.075C467.103 344.686 467.082 344.296 467.083 343.904C467.074 342.09 467.515 340.301 468.369 338.7C468.515 338.421 468.675 338.151 468.851 337.889C469.669 336.641 470.732 335.573 471.975 334.749C472.239 334.576 472.509 334.415 472.785 334.26C474.627 333.26 476.716 332.807 478.807 332.957C480.897 333.106 482.901 333.851 484.582 335.103C484.832 335.296 485.077 335.496 485.308 335.702C486.974 337.178 488.149 339.129 488.677 341.292C488.773 341.676 488.846 342.065 488.895 342.457C488.96 342.937 488.993 343.42 488.992 343.904Z" fill="#F1CFD3"/>
<path d="M425.085 339.163C425.512 339.116 425.941 339.093 426.371 339.092C426.21 338.784 426.03 338.481 425.843 338.192C425.425 338.192 425.008 338.25 424.596 338.308C423.87 337.084 423.078 335.901 422.224 334.763C421.4 334.274 420.51 333.906 419.582 333.669C420.923 335.208 422.134 336.856 423.201 338.597C419.768 339.504 416.85 341.814 414.548 344.291C413.133 341.472 411.166 338.966 408.763 336.924C408.563 337.149 408.377 337.381 408.197 337.619C410.589 339.658 412.523 342.179 413.873 345.018C413.34 345.629 412.845 346.253 412.382 346.864C410.391 346.66 408.414 346.337 406.461 345.899L406.313 346.504L406.249 346.774L406.384 346.806C408.157 347.211 409.951 347.518 411.758 347.726C410.846 349.022 410.011 350.372 409.258 351.766C409.476 351.985 409.708 352.191 409.945 352.41C410.78 350.829 411.725 349.309 412.774 347.861C413.462 347.926 414.175 347.984 414.915 348.029C415.452 350.229 415.509 352.52 415.082 354.745C415.085 354.762 415.085 354.78 415.082 354.797L415.969 354.97V354.848C416.389 352.602 416.343 350.294 415.834 348.067C416.303 348.067 416.785 348.067 417.268 348.067C420.604 348.067 424.133 347.636 426.956 346.272L427.187 346.877C427.415 346.038 427.538 345.173 427.553 344.304C426.83 342.544 426.006 340.828 425.085 339.163ZM413.443 346.967C413.706 346.626 413.983 346.285 414.272 345.938C414.42 346.304 414.548 346.678 414.664 347.057L413.443 346.967ZM415.615 347.102C415.425 346.446 415.198 345.802 414.934 345.172C417.235 342.599 420.193 340.244 423.683 339.414C424.815 341.345 425.805 343.355 426.647 345.429C423.51 346.961 419.344 347.263 415.615 347.102Z" fill="#CD4E07"/>
<path d="M488.896 342.457C488.846 342.065 488.773 341.676 488.677 341.292C487.269 343.222 484.46 344.329 481.239 344.889C480.841 344.573 480.436 344.245 480.018 343.969C481.984 341.348 483.752 338.585 485.308 335.702C485.077 335.496 484.833 335.296 484.582 335.103C483.006 338.003 481.227 340.787 479.259 343.435C478.996 343.248 478.738 343.068 478.468 342.907C476.966 339.792 475.059 336.89 472.798 334.273C472.522 334.428 472.252 334.589 471.988 334.762C473.875 336.968 475.521 339.368 476.9 341.923C474.317 340.398 471.632 339.054 468.864 337.902C468.688 338.168 468.528 338.438 468.382 338.713C471.621 340.06 474.741 341.676 477.71 343.544C477.896 343.943 478.07 344.342 478.237 344.754C478.083 344.947 477.928 345.133 477.768 345.32C474.223 345.528 470.667 345.45 467.135 345.088C467.165 345.406 467.212 345.721 467.276 346.034C469.05 346.208 471.461 346.381 474.071 346.381C474.997 346.381 475.942 346.381 476.893 346.311C474.618 348.781 472.123 350.685 469.687 351.02C469.916 351.299 470.163 351.563 470.426 351.811C473.145 351.168 475.833 348.948 478.218 346.22L478.77 346.169C479.774 348.905 480.132 351.835 479.818 354.732C480.139 354.682 480.456 354.616 480.77 354.533C481.039 351.664 480.683 348.771 479.728 346.053L480.956 345.873C482.977 347.404 484.646 349.353 485.848 351.586C486.078 351.355 486.292 351.11 486.491 350.853C485.378 348.863 483.902 347.1 482.139 345.654C484.903 345.075 487.346 344.085 488.876 342.438L488.896 342.457ZM479.413 345.153L479.311 344.882C479.356 344.824 479.4 344.773 479.439 344.715L479.947 345.088L479.413 345.153Z" fill="#CD4E07"/>
<path d="M463.47 334.975H432.079V349.527H463.47V334.975Z" fill="#F1CFD3"/>
<path d="M490.972 322.301H405.504V331.475H490.972V322.301Z" fill="#D19727"/>
<path d="M457.968 351.078H451.893V352.339H457.968V351.078Z" fill="#CD4E07"/>
<path d="M465.038 351.078H458.963V352.339H465.038V351.078Z" fill="#CD4E07"/>
<path d="M436.753 351.078H430.678V352.339H436.753V351.078Z" fill="#CD4E07"/>
<path d="M443.824 351.078H437.749V352.339H443.824V351.078Z" fill="#CD4E07"/>
<path d="M450.896 351.078H444.821V352.339H450.896V351.078Z" fill="#CD4E07"/>
<path d="M440.481 344.355C441.326 344.355 442.011 343.669 442.011 342.824C442.011 341.978 441.326 341.292 440.481 341.292C439.636 341.292 438.951 341.978 438.951 342.824C438.951 343.669 439.636 344.355 440.481 344.355Z" fill="#CD4E07"/>
<path d="M455.268 344.355C456.113 344.355 456.798 343.669 456.798 342.824C456.798 341.978 456.113 341.292 455.268 341.292C454.423 341.292 453.738 341.978 453.738 342.824C453.738 343.669 454.423 344.355 455.268 344.355Z" fill="#CD4E07"/>
<path d="M310.643 331.057C303.964 341.35 295.857 348.601 286.96 353.574C262.03 339.517 265.103 321.406 265.418 319.804C272.082 315.781 277.877 310.466 282.46 304.171L281.946 303.785C265.482 325.775 244.338 327.743 229.508 325.524C219.467 323.917 209.807 320.476 201.01 315.372C200.155 311.698 193.803 285.134 188.873 286.041C188.448 286.125 188.047 286.298 187.695 286.55C187.344 286.802 187.05 287.126 186.835 287.502C183.948 292.057 187.021 305.953 187.96 309.832C183.755 306.21 164.174 289.856 156.82 292.546C156.44 292.636 156.097 292.839 155.835 293.128C155.574 293.418 155.406 293.78 155.354 294.167C155.123 296.927 161.873 302.189 168.578 306.693C161.603 303.129 153.792 299.815 150.359 300.716C150.023 300.788 149.706 300.929 149.428 301.131C149.151 301.332 148.918 301.59 148.745 301.887C148.611 302.151 148.532 302.439 148.514 302.735C148.495 303.03 148.537 303.326 148.636 303.605C149.652 306.95 157.09 312.142 163.949 316.337C155.399 312.477 145.113 309.048 142.593 313.197C142.434 313.466 142.337 313.768 142.309 314.08C142.281 314.391 142.323 314.705 142.432 314.999C143.5 318.402 151.67 323.362 158.941 327.145C139.81 319.225 139.186 320.371 137.283 323.864C137.21 324 137.168 324.151 137.161 324.306C137.153 324.461 137.179 324.615 137.238 324.758C138.736 329.036 166.167 340.578 167.279 341.048C182.733 349.194 199.132 355.402 216.104 359.531C226.458 362.061 237.069 363.391 247.726 363.494C271.081 363.494 295.208 356.038 311.202 331.41L310.643 331.057ZM216.246 358.907C199.321 354.786 182.968 348.595 167.555 340.475C159.674 337.175 138.993 327.878 137.817 324.546C137.788 324.488 137.774 324.424 137.774 324.359C137.774 324.295 137.788 324.231 137.817 324.173C139.784 320.576 140.247 319.721 170.603 332.794L170.86 332.208C170.603 332.092 144.882 320.686 143.037 314.806C142.956 314.597 142.922 314.374 142.939 314.151C142.956 313.929 143.022 313.712 143.133 313.519C146.251 308.372 163.544 316.581 171.676 320.814C174.035 322.101 175.668 322.976 175.919 323.105L176.228 322.539C175.958 322.384 174.299 321.458 171.888 320.19C164.618 316.137 150.597 307.851 149.247 303.405C149.171 303.209 149.137 302.998 149.147 302.788C149.157 302.578 149.211 302.372 149.305 302.183C149.435 301.962 149.611 301.772 149.82 301.624C150.03 301.477 150.268 301.376 150.52 301.327C155.245 300.079 169.163 307.536 176.639 311.827C179.307 313.448 181.223 314.542 181.499 314.703L181.827 314.149C181.55 313.976 179.513 312.715 176.568 311.029C167.999 305.786 155.72 297.519 155.997 294.205C156.035 293.729 156.376 293.382 157.045 293.137C164.759 290.313 188.075 310.765 188.307 310.971L189.098 311.672L188.834 310.649C188.789 310.476 184.231 292.803 187.381 287.83C187.548 287.53 187.779 287.27 188.056 287.068C188.334 286.866 188.652 286.726 188.988 286.659H189.162C192.511 286.659 197.699 303.875 200.412 315.655L200.444 315.783L200.553 315.854C209.449 321.037 219.227 324.528 229.392 326.148C239.421 327.653 252.291 327.261 264.704 320.203C264.164 323.787 263.052 340.63 286.311 353.921C264.248 365.9 237.569 363.951 216.246 358.907Z" fill="#CD4E07"/>
</svg>
