<svg width="39" height="37" viewBox="0 0 39 37" fill="none" xmlns="http://www.w3.org/2000/svg">
<path d="M0.938477 36.1033L10.261 10.0378L27.0272 26.8041L0.938477 36.1033ZM23.6685 19.2699L21.5656 17.1666L30.4985 8.23367C31.4815 7.25062 32.6726 6.75909 34.0718 6.75909C35.471 6.75909 36.6621 7.25062 37.6451 8.23367L38.6451 9.23367L36.5185 11.337L35.5185 10.337C35.1296 9.94812 34.6435 9.75367 34.0601 9.75367C33.4768 9.75367 32.9907 9.94812 32.6018 10.337L23.6685 19.2699ZM16.2718 11.8966L14.1685 9.76992L15.0272 8.91117C15.4161 8.52228 15.6106 8.05006 15.6106 7.4945C15.6106 6.93895 15.4161 6.46673 15.0272 6.07784L13.9439 4.9945L16.0472 2.89117L17.1306 3.97451C18.1136 4.95756 18.6051 6.13478 18.6051 7.50617C18.6051 8.87756 18.1136 10.0548 17.1306 11.0378L16.2718 11.8966ZM19.9822 15.5833L17.8551 13.4799L23.5726 7.76242C23.9615 7.37353 24.156 6.88742 24.156 6.30409C24.156 5.72075 23.9615 5.23464 23.5726 4.84575L20.906 2.17909L23.0326 0.0761719L25.6993 2.74284C26.6824 3.72589 27.1739 4.91298 27.1739 6.30409C27.1739 7.69548 26.6824 8.8827 25.6993 9.86576L19.9822 15.5833ZM27.3551 22.9799L25.2518 20.8533L27.7772 18.3278C28.7603 17.3448 29.9514 16.8533 31.3506 16.8533C32.7497 16.8533 33.941 17.3448 34.9243 18.3278L37.591 20.9945L35.4639 23.1212L32.7972 20.4545C32.4083 20.0656 31.9222 19.8712 31.3389 19.8712C30.7556 19.8712 30.2694 20.0656 29.8806 20.4545L27.3551 22.9799Z" fill="#CD4E07"/>
</svg>
