<svg width="584" height="432" viewBox="0 0 584 432" fill="none" xmlns="http://www.w3.org/2000/svg">
<rect width="584" height="242" transform="translate(0 95)" fill="#F1CFD3"/>
<path d="M355.824 96.4227C354.522 96.5732 353.265 96.9975 352.13 97.669C350.996 98.3405 350.009 99.2448 349.23 100.325C350.782 94.5446 349.353 90.4115 349.271 90.1812L348.631 90.4255C348.631 90.4953 351.129 97.6305 345.964 106.183L346.535 106.553C347.349 105.2 348.033 103.769 348.577 102.28L348.706 102.35C352.258 95.8991 357.811 97.1139 358.042 97.1627L358.199 96.4646C357.413 96.3292 356.613 96.3151 355.824 96.4227Z" fill="#CD4E07"/>
<path d="M385.86 58.1498C385.803 57.9896 385.712 57.8442 385.595 57.7236C385.477 57.6031 385.336 57.5102 385.179 57.4516C381.158 56.1949 379.838 55.783 371.244 76.4695C373.918 67.9798 376.436 57.9473 374.728 54.4984C374.591 54.1897 374.39 53.9158 374.138 53.6961C373.886 53.4765 373.59 53.3166 373.271 53.2277C368.29 51.9292 363.064 62.4225 359.451 71.8895C361.533 63.4278 363.309 53.7374 361.601 50.3862C361.47 50.0944 361.281 49.8336 361.047 49.6198C360.813 49.406 360.538 49.2439 360.241 49.1435C359.891 49.0437 359.525 49.0208 359.166 49.0761C358.807 49.1315 358.464 49.2639 358.158 49.4647C354.879 51.3776 351.442 59.8812 348.809 67.9519C350.537 59.3576 351.748 50.1558 349.53 48.187C349.346 48.0215 349.129 47.8984 348.894 47.8262C348.659 47.7539 348.412 47.7341 348.169 47.7681C347.844 47.8114 347.527 47.9056 347.23 48.0474C339.677 51.5382 336.989 79.1155 336.492 85.1196C334.329 81.3985 326.367 68.294 320.808 66.9675C320.367 66.842 319.906 66.8144 319.454 66.8866C319.002 66.9589 318.57 67.1293 318.188 67.3864C313.765 70.4234 328.66 95.8503 330.736 99.3411C327.868 109.978 323.119 119.984 316.725 128.859C307.158 141.866 289.718 156.423 260.982 151.899L260.88 152.597C268.998 153.988 277.306 153.701 285.315 151.752C286.751 152.736 302.469 164.41 294.045 194.263C282.747 197.396 270.867 197.604 259.471 194.87L259.328 195.568C277.918 199.813 295.59 197.076 311.853 187.449C324.843 179.769 336.955 167.663 347.87 151.515C366.419 124.042 375.163 93.9165 375.238 93.6511C375.721 92.3875 387.895 62.604 385.86 58.1498ZM374.557 93.4138C374.476 93.714 365.759 123.749 347.264 151.131C335.54 168.487 318.113 187.191 294.78 194.06C302.503 166.134 289.194 153.902 286.138 151.543C300.741 147.57 310.771 138.089 317.235 129.299C323.714 120.312 328.515 110.171 331.396 99.39L331.43 99.2504L331.355 99.1247C324.55 87.7308 315.548 70.0394 318.535 67.9868C318.839 67.7826 319.183 67.6487 319.542 67.5944C319.902 67.5401 320.269 67.5668 320.617 67.6726C326.68 69.1248 336.322 86.2856 336.418 86.4601L336.976 87.4515L337.05 86.3135C337.05 85.9714 339.534 52.4109 347.482 48.7176C347.712 48.5493 347.988 48.4588 348.271 48.4588C348.554 48.4588 348.83 48.5493 349.061 48.7176C351.714 51.0634 348.564 66.8139 345.971 77.398C344.991 80.9377 344.386 83.465 344.304 83.8071L344.985 83.9886C345.08 83.6535 345.713 81.3566 346.529 78.0682C348.999 69.062 354.014 52.6902 358.499 50.0721C358.725 49.9187 358.98 49.8158 359.247 49.7701C359.514 49.7244 359.788 49.7369 360.05 49.8068C360.261 49.8823 360.455 50.002 360.619 50.1582C360.783 50.3144 360.914 50.5038 361.003 50.7144C363.275 55.1826 358.818 72.2596 356.314 80.9307C355.416 83.7233 354.865 85.727 354.776 86.0552L355.457 86.2576C355.545 85.9644 356.137 84.0584 356.968 81.2518C359.982 71.7848 366.977 52.2922 373.135 53.905C373.36 53.9693 373.569 54.0842 373.745 54.2411C373.922 54.3981 374.062 54.5932 374.156 54.8126C377.109 60.7748 366.12 89.169 365.99 89.4552L366.623 89.7135C379.831 56.551 380.811 56.8582 384.962 58.1567C385.009 58.1567 385.132 58.2056 385.241 58.45C386.826 61.9128 378.089 84.8404 374.557 93.4138Z" fill="#CD4E07"/>
<path d="M344.018 352.913L404.763 354.309L404.083 386.382L423.415 407.104L342.923 405.289C342.923 405.289 343.501 353.443 344.018 352.913Z" fill="#D19727"/>
<path d="M238.104 271.186L330.756 282.636L330.919 345.84L394.304 349.82L391.181 225.833L246.624 228.158L238.104 271.186Z" fill="#CD4E07"/>
<path d="M300.169 351.921L360.914 353.317L360.233 385.391L379.558 406.119L299.066 404.297C299.066 404.297 299.645 352.451 300.169 351.921Z" fill="#CD4E07"/>
<path d="M280.926 209.545C279.102 209.783 229.619 203.723 217.425 202.215L214.703 201.886L217.622 197.265L233.273 172.571L236.954 166.755L249.427 147.039L259.117 148.582C259.117 148.582 260.736 152.715 263.111 158.824C263.649 160.22 264.234 161.728 264.84 163.313C267.289 169.659 270.188 177.276 272.855 184.446C273.842 187.113 274.801 189.725 275.693 192.196C279.19 201.928 281.654 209.448 280.926 209.545Z" fill="#CD4E07"/>
<path d="M205.252 276.122L298.543 281.142L298.707 344.346L362.091 348.333L359.812 225.506L213.173 221.491L205.252 276.122Z" fill="#D19727"/>
<path d="M259.355 115.406C257.966 115.038 256.515 114.979 255.101 115.231C253.687 115.483 252.342 116.041 251.154 116.868C249.967 117.695 248.964 118.771 248.214 120.026C247.463 121.281 246.982 122.686 246.801 124.147C246.62 125.608 246.745 127.091 247.166 128.499C247.588 129.906 248.297 131.206 249.245 132.311C250.194 133.415 251.361 134.3 252.669 134.907C253.977 135.513 255.396 135.827 256.831 135.827C259.293 135.827 261.67 134.906 263.517 133.237C265.364 131.567 266.554 129.263 266.864 126.758C267.173 124.252 266.582 121.717 265.199 119.627C263.817 117.537 261.739 116.036 259.355 115.406ZM265.881 127.854C265.364 129.913 264.194 131.738 262.556 133.041C260.917 134.344 258.904 135.051 256.831 135.052C256.039 135.051 255.25 134.948 254.483 134.745C253.158 134.391 251.924 133.742 250.87 132.846L256.395 123.372L265.874 123.051C266.275 124.625 266.277 126.278 265.881 127.854Z" fill="#CD4E07"/>
<path d="M247.869 146.208L223.461 129.857L200.325 166.308L200.958 166.734L205.633 159.369L228.687 144.253L246.535 146.893L243.882 151.081L244.514 151.507L247.454 146.865C264.309 160.032 268.147 182.226 256.749 201C252.843 207.43 246.032 211.284 237.56 211.856C227.741 212.519 217.827 208.526 212.383 201.677L211.798 202.166C217.037 208.701 226.149 212.708 235.464 212.708C236.186 212.708 236.914 212.708 237.635 212.631C246.358 212.045 253.381 208.058 257.416 201.412C269.011 182.261 265.085 159.62 247.869 146.208ZM228.517 143.416L206.613 157.784L223.658 130.919L246.338 146.069L228.517 143.416Z" fill="#CD4E07"/>
<path d="M195.147 274.481C195.407 262.224 197.857 250.12 202.373 238.77C209.178 222.077 224.148 201.503 256.279 198.277L256.211 197.509C245.827 198.535 237.233 201.363 230.109 205.273C228.292 204.574 208.225 196.399 209.375 161.833C219.925 155.795 231.687 152.327 243.752 151.696C244.643 151.647 245.548 151.605 246.474 151.577V150.802C245.555 150.802 244.65 150.872 243.752 150.921C227.686 151.898 213.24 157.204 200.815 166.63C175.529 185.822 162.73 219.222 156.428 243.846C152.303 259.974 149.725 276.478 148.732 293.122C148.515 294.63 143.336 330.124 146.691 334.355C146.798 334.506 146.937 334.631 147.097 334.72C147.257 334.81 147.435 334.861 147.616 334.872C152.291 335.102 153.822 335.172 157.565 310.478C156.946 320.364 156.884 331.891 159.667 335.123C159.897 335.419 160.187 335.659 160.518 335.825C160.849 335.992 161.211 336.081 161.58 336.087C167.289 336.087 170.106 323.317 171.487 312.098C171.487 321.795 172.168 332.722 174.889 335.835C175.107 336.115 175.38 336.345 175.689 336.511C175.998 336.677 176.338 336.775 176.686 336.799H176.801C177.576 336.776 178.309 336.439 178.843 335.863C181.857 332.875 183.3 322.752 183.98 313.327C184.409 323.101 185.559 333.322 188.478 334.816C189.261 335.214 190.105 335.046 190.996 334.32C198.202 328.414 193.718 297.974 192.683 291.37C195.99 294.756 207.96 306.534 214.329 306.534H214.424C214.934 306.548 215.44 306.449 215.91 306.246C216.379 306.042 216.801 305.738 217.146 305.354C221.14 300.906 198.318 277.665 195.147 274.481ZM216.622 304.872C216.347 305.176 216.011 305.416 215.638 305.575C215.265 305.734 214.862 305.808 214.458 305.794H214.37C207.422 305.794 192.595 290.148 192.432 289.987L191.567 289.073L191.785 290.329C191.853 290.699 198.148 327.541 190.574 333.748C190.362 333.986 190.084 334.152 189.778 334.224C189.472 334.296 189.151 334.271 188.859 334.153C185.375 332.372 184.579 314.521 184.552 302.394C184.654 298.302 184.634 295.412 184.634 295.014H183.878C183.878 295.405 183.797 298.058 183.797 301.828C183.538 312.217 182.49 331.262 178.353 335.34C178.15 335.566 177.903 335.746 177.627 335.866C177.351 335.987 177.053 336.045 176.754 336.038C176.507 336.017 176.268 335.944 176.05 335.824C175.832 335.704 175.641 335.539 175.488 335.34C171.848 331.151 172.086 311.505 172.487 301.472C172.698 298.17 172.766 295.887 172.773 295.524L172.018 295.489C172.018 295.831 171.855 298.051 171.725 301.304C171.004 312.342 168.65 335.305 161.6 335.305C161.336 335.302 161.077 335.237 160.841 335.116C160.606 334.995 160.4 334.821 160.239 334.607C155.476 329.021 159.736 295.342 159.783 295L159.028 294.895C153.584 334.376 152.461 334.313 147.651 334.09C147.603 334.09 147.453 334.09 147.276 333.853C144.643 330.564 147.957 303.413 149.461 293.185C150.449 276.584 153.02 260.121 157.136 244.034C163.403 219.522 176.128 186.304 201.189 167.237C203.559 165.436 206.026 163.774 208.579 162.259C207.674 194.626 225.291 204.051 229.217 205.747C214.547 214.125 206.272 227.146 201.652 238.428C197.067 249.94 194.597 262.222 194.364 274.656V274.816L194.473 274.928C204.857 285.296 219.289 301.821 216.622 304.872Z" fill="#CD4E07"/>
<path d="M215.186 403.948H209.565V304.3H208.885V404.646H215.866V306.038H215.186V403.948Z" fill="#CD4E07"/>
<path d="M299.938 278.642H204.503V285.966H208.885V290.322H209.566V285.966H215.186V298.861H215.867V285.966H241.547V404.653H248.529V285.966H287.138V404.653H294.12V285.966H299.938V278.642ZM247.848 403.941H242.228V285.952H247.848V403.941ZM293.439 403.941H287.819V285.952H293.439V403.941ZM299.257 285.254H294.12H287.138H248.529H241.547H215.867H208.885H205.183V279.326H299.257V285.254Z" fill="#CD4E07"/>
<path d="M416.338 132.113L406.587 129.613L406.621 129.46L406.369 129.558L405.75 129.397L405.641 129.851L369.386 144.386L369.229 144.449L349.36 216.046H296.672V226.518H393.44V226.204L416.338 132.113ZM369.794 144.973L405.444 130.682L384.662 216.046H350.068L369.794 144.973Z" fill="#CD4E07"/>
<path d="M299.993 41.729H192.303V64.873H208.77L210.403 80.7212L214.316 64.873H299.993V41.729Z" fill="#CD4E07"/>
<path d="M294.705 47.4258H197.365V50.0788H294.705V47.4258Z" fill="#F1CFD3"/>
<path d="M294.705 52.313H197.365V54.966H294.705V52.313Z" fill="#F1CFD3"/>
<path d="M294.705 57.2002H197.365V59.8532H294.705V57.2002Z" fill="#F1CFD3"/>
<path d="M300.142 77.063H222.494V100.207H286.839L286.369 117.123L291.296 100.207H300.142V77.063Z" fill="#CD4E07"/>
<path d="M296.331 82.7529H226.142V85.4059H296.331V82.7529Z" fill="#F1CFD3"/>
<path d="M296.331 87.6401H226.142V90.2931H296.331V87.6401Z" fill="#F1CFD3"/>
<path d="M296.331 92.5269H226.142V95.1799H296.331V92.5269Z" fill="#F1CFD3"/>
</svg>
