<svg width="1440" height="536" viewBox="0 0 1440 536" fill="none" xmlns="http://www.w3.org/2000/svg">
<mask id="mask0_6005_311" style="mask-type:alpha" maskUnits="userSpaceOnUse" x="0" y="0" width="1440" height="899">
<rect width="1440" height="899" fill="#D5F9E2"/>
</mask>
<g mask="url(#mask0_6005_311)">
<path d="M1116.13 -138.783C1076.83 -141.559 1035.66 -104.563 1021.92 -57.986C1008.17 -11.4047 1020.69 40.3359 1049.4 69.6609C1078.12 99.0005 1120.81 106.539 1160.13 93.6731C1180.62 86.9723 1201.69 73.6497 1212.63 51.0957C1223.57 28.5417 1219.37 -3.88542 1200.38 -11.423C1176.23 -21.0148 1151.54 11.4983 1138.74 40.802C1127.46 66.6276 1118.15 94.9579 1120.11 122.443C1122.06 149.927 1138.35 175.694 1161.38 176.515C1194.74 177.698 1218.08 132.857 1245.08 105.179C1288.05 61.0978 1355.48 61.1898 1390.44 105.361C1425.4 149.536 1422.54 231.083 1384.28 281.128C1367.71 302.814 1342.98 319.049 1321.07 312.592C1297.78 305.74 1285.36 273.996 1289.5 244.285C1293.63 214.574 1311.14 187.847 1331.77 168.886C1382.47 122.318 1455.28 119.036 1500.7 161.293C1546.13 203.551 1560.06 287.542 1533.04 356.138" stroke="#0A0220" stroke-width="19" stroke-miterlimit="10"/>
<path d="M57.6054 -15.3827C21.0015 -32.1143 -31.631 -11.4672 -61.4559 28.1696C-91.2941 67.8058 -97.8478 121.786 -80.8831 160.123C-63.9218 198.474 -25.7843 220.974 16.4451 222.75C38.4375 223.675 63.3676 218.477 81.9116 200.82C100.456 183.162 108.052 150.637 92.5849 136.625C72.9194 118.801 37.6509 141.06 14.9159 164.511C-5.12494 185.176 -24.1741 208.945 -32.15 235.937C-40.126 262.929 -33.7742 293.411 -12.0348 302.445C19.4608 315.527 57.8471 280.988 93.5817 264.178C150.483 237.4 214.95 261.636 232.58 316.414C250.196 371.191 218.257 448.178 163.737 482.352C140.116 497.162 110.644 503.836 91.9978 489.813C72.1698 474.916 71.66 440.102 86.2563 413.161C100.853 386.219 127.171 366.92 153.699 356.17C218.876 329.778 289.709 352.717 318.028 409.41C346.347 466.102 329.592 551.439 279.184 607.386" stroke="#D19727" stroke-width="13" stroke-miterlimit="10"/>
</g>
</svg>
