<svg width="584" height="428" viewBox="0 0 584 428" fill="none" xmlns="http://www.w3.org/2000/svg">
<rect width="277" height="428" transform="translate(153.5)" fill="#F1CFD3"/>
<path d="M270.417 254.64H130.737V384.428H270.417V254.64Z" fill="#D19727"/>
<path d="M130.626 254.246V384.8H172.912C176.242 384.8 184.524 384.8 186.089 384.8H270.472V254.246H130.626ZM269.689 254.801L253.398 306.739L231.722 254.84V254.801H269.689ZM231.134 384.245H186.367C186.05 384.245 185.162 384.206 182.481 384.206H172.901H131.181V255.328L179.223 315.276L179.434 315.537L231.134 255.728V384.245ZM231.134 254.912L179.439 314.699L131.47 254.801H231.134V254.912ZM269.917 384.034H231.689V256.199L253.181 307.644L253.476 308.343L269.917 255.955V384.034Z" fill="#0A0220"/>
<path d="M270.417 122.893H130.737V252.681H270.417V122.893Z" fill="#D19727"/>
<path d="M130.626 122.493V253.036H172.912C176.242 253.036 184.524 253.036 186.089 253.036H270.472V122.493H130.626ZM269.689 123.048L253.398 174.981L231.722 123.081V123.042L269.689 123.048ZM231.134 252.481H186.367C186.05 252.453 185.162 252.442 182.481 252.442H172.901H131.181V123.575L179.223 183.551L179.434 183.812L231.134 124.002V252.481ZM231.134 123.148L179.439 182.946L131.47 123.048H231.134V123.148ZM269.917 252.281H231.689V124.469L253.181 175.924L253.476 176.624L269.917 124.202V252.281Z" fill="#0A0220"/>
<path d="M437.301 154.088C437.301 154.254 437.251 154.415 437.229 154.582C437.207 154.748 437.19 154.832 437.168 154.959C436.652 158.34 436.008 161.798 435.214 165.273C431.75 180.504 426.161 193.11 418.612 202.74C409.175 214.791 396.592 222.168 381.261 224.705L381.172 224.15C391.635 222.429 400.183 218.499 407.16 213.181C404.685 188.614 389.337 184.778 387.949 184.484C382.462 188.356 376.257 191.094 369.698 192.538L369.576 191.983C382.143 189.041 390.503 182.941 396.059 175.98C396.148 175.875 396.231 175.764 396.314 175.653L396.586 175.303L397.419 175.125L397.158 175.475C397.08 175.586 396.997 175.691 396.908 175.802C394.507 178.918 391.691 181.689 388.538 184.04C391.568 184.861 405.24 189.824 407.677 212.776C423.302 200.609 430.945 181.503 434.676 165.128C435.408 161.898 436.019 158.684 436.513 155.531C436.513 155.409 436.557 155.287 436.568 155.165C436.579 155.043 436.624 154.832 436.646 154.665L437.301 154.088Z" fill="#CD4E07"/>
<path d="M326.807 187.431L326.329 187.714C322.804 181.995 320.457 175.63 319.424 168.992C318.208 168.165 304.759 159.899 285.459 175.147C286.628 184.624 290.13 193.662 295.65 201.452L295.189 201.769C286.347 189.002 282.922 174.82 285.015 159.65C286.586 148.259 291.243 136.298 298.892 124.041C298.947 123.953 298.997 123.869 299.058 123.781C299.119 123.692 299.186 123.575 299.258 123.47C299.341 123.681 299.425 123.892 299.513 124.097L299.319 124.408L299.153 124.674C290.682 138.396 283.411 156.047 285.392 174.503C303.549 160.31 316.61 166.655 319.319 168.281C318.73 163.66 318.889 158.974 319.79 154.404L319.84 154.127C319.868 154.004 319.89 153.882 319.918 153.76C320.079 153.916 320.24 154.06 320.395 154.215C320.368 154.338 320.346 154.454 320.323 154.576L320.273 154.848C318.525 164.19 319.563 175.314 326.807 187.431Z" fill="#CD4E07"/>
<path d="M398.501 45.6479V46.1697L346.817 105.552L298.548 46.4029V45.6479H398.501Z" fill="#D19727"/>
<path d="M436.262 45.6479L420.765 97.5698L399.211 45.6479H436.262Z" fill="#D19727"/>
<path d="M398.501 47.0137V175.081H353.734V175.359H353.484C353.531 175.165 353.569 174.968 353.595 174.77L346.024 172.511L342.693 175.359H340.273V175.081H298.548V47.2801L346.595 106.152L346.806 106.407L398.501 47.0137Z" fill="#D19727"/>
<path d="M437.278 45.6479V175.081H399.056V46.7137L420.848 99.224L436.845 45.6479H437.278Z" fill="#D19727"/>
<path d="M297.993 45.0928V175.636H340.284V175.081H298.548V47.2798L346.596 106.151L346.807 106.407L398.501 47.0133V175.081H353.734V175.636H437.834V45.0928H297.993ZM436.263 45.6479L420.765 97.5697L399.211 45.6479H436.263ZM398.518 46.1696L346.834 105.563L298.543 46.4139V45.6479H398.501L398.518 46.1696ZM437.295 175.081H399.056V46.7136L420.848 99.2239L436.846 45.6479H437.279L437.295 175.081Z" fill="#0A0220"/>
<path d="M276.889 348.115L231.517 345.201L229.951 369.624L214.198 384.078L274.319 387.964C274.319 387.964 277.244 348.553 276.889 348.115Z" fill="#0A0220"/>
<path d="M344.259 217.849H344.27L344.264 217.844L344.259 217.849Z" fill="#CD4E07"/>
<path d="M417.101 325.912L416.885 336.686V337.241L416.385 361.797V362.502L416.202 371.656L403.136 373.376L402.581 373.448L377.08 376.779L376.525 376.857L346.551 380.742L345.996 380.82L332.436 382.579L332.535 360.054V359.416L332.635 336.103V335.465L332.952 264.687H332.397L332.286 289.982L328.689 289.249L328.1 289.127L309.716 285.363L309.122 285.247L301.979 283.781L301.423 283.67L287.302 280.778L287.141 282.222L287.78 275.111L287.857 274.234L289.423 256.799L288.868 256.749L287.252 274.895L287.164 275.921L286.453 283.826L286.359 284.858L285.498 294.455L285.448 295.011L284.338 307.278V307.372L282.873 320.455L282.806 321.01L281.574 331.951L281.457 333.011L280.63 340.394L280.514 341.459L280.453 342.014H229.541L231.917 325.556C231.917 325.368 231.967 325.173 232 325.001C232.91 318.64 234.02 310.925 235.219 302.621C235.219 302.415 235.275 302.21 235.303 302.005C236.907 290.803 238.661 278.569 240.298 267.135C240.332 266.929 240.359 266.724 240.387 266.524C241.087 261.634 241.758 256.905 242.38 252.469L242.463 251.914C244.756 235.673 246.432 223.556 246.432 222.812C246.432 222.212 254.464 222.973 266.47 224.444L267.159 224.527C269.873 224.86 272.776 225.232 275.829 225.637L276.384 225.715C285.737 226.93 296.444 228.396 307.23 229.911L307.785 229.994C339.746 234.491 372.235 239.375 372.235 239.375L372.645 242.706L372.74 243.455L376.714 275.977L376.808 276.726L380.344 305.59L380.411 306.145L383.336 329.847L399.25 328.004L399.805 327.938L406.161 327.194L406.716 327.127L417.101 325.912Z" fill="#CD4E07"/>
<path d="M332.235 382.629H332.429V382.591L332.235 382.629Z" fill="#0A0220"/>
<path d="M323.388 226.226C324.642 226.725 360.889 231.615 369.826 232.814L371.802 233.081L370.553 229.345L363.892 209.362L362.315 204.655L356.981 188.708L349.821 187.998C349.821 187.998 347.928 190.562 345.147 194.359L343.115 197.134C340.24 201.081 336.821 205.81 333.635 210.301C332.458 211.966 331.309 213.598 330.232 215.146C325.98 221.269 322.888 226.048 323.388 226.226Z" fill="#CD4E07"/>
<path d="M376.736 275.955C373.929 279.299 370.206 281.751 366.025 283.008C361.844 284.265 357.386 284.273 353.2 283.032C349.014 281.79 345.282 279.353 342.463 276.019C339.643 272.685 337.859 268.601 337.329 264.267C336.8 259.933 337.548 255.538 339.481 251.624C341.415 247.709 344.45 244.445 348.214 242.232C351.978 240.019 356.306 238.953 360.667 239.167C365.028 239.38 369.232 240.863 372.762 243.433L372.667 242.684C369.027 240.158 364.735 238.739 360.307 238.599C355.879 238.458 351.505 239.601 347.712 241.89C343.919 244.179 340.869 247.516 338.93 251.5C336.991 255.483 336.245 259.942 336.783 264.34C337.321 268.737 339.12 272.885 341.962 276.283C344.805 279.681 348.569 282.185 352.802 283.492C357.035 284.799 361.556 284.854 365.82 283.649C370.083 282.445 373.907 280.033 376.83 276.704L376.736 275.955Z" fill="#0A0220"/>
<path d="M347.983 299.257C346.258 299.257 344.572 299.768 343.138 300.726C341.704 301.685 340.587 303.047 339.926 304.64C339.266 306.233 339.094 307.987 339.43 309.678C339.767 311.37 340.597 312.924 341.817 314.143C343.036 315.363 344.59 316.193 346.282 316.53C347.973 316.866 349.727 316.694 351.32 316.034C352.913 315.374 354.275 314.256 355.234 312.822C356.192 311.388 356.703 309.702 356.703 307.977C356.7 305.665 355.781 303.449 354.146 301.814C352.511 300.179 350.295 299.26 347.983 299.257ZM347.983 316.142C346.368 316.142 344.789 315.663 343.447 314.766C342.104 313.869 341.057 312.594 340.439 311.102C339.821 309.61 339.66 307.968 339.975 306.384C340.29 304.8 341.067 303.345 342.209 302.203C343.351 301.062 344.806 300.284 346.39 299.969C347.974 299.654 349.616 299.815 351.108 300.433C352.6 301.051 353.875 302.098 354.772 303.441C355.669 304.784 356.148 306.362 356.148 307.977C356.145 310.142 355.284 312.217 353.753 313.747C352.223 315.278 350.148 316.139 347.983 316.142Z" fill="#0A0220"/>
<path d="M399.25 328.01C398.747 331.67 397.201 335.108 394.797 337.913C392.393 340.718 389.233 342.772 385.693 343.829C382.153 344.887 378.384 344.903 374.835 343.876C371.287 342.849 368.108 340.823 365.68 338.038C363.252 335.254 361.677 331.83 361.142 328.174C360.608 324.519 361.137 320.787 362.666 317.424C364.195 314.061 366.66 311.209 369.766 309.209C372.873 307.209 376.489 306.146 380.183 306.145H380.449L380.383 305.59H380.183C376.375 305.588 372.648 306.684 369.447 308.746C366.246 310.808 363.708 313.749 362.137 317.217C360.565 320.685 360.027 324.533 360.586 328.299C361.145 332.065 362.779 335.59 365.291 338.452C367.803 341.313 371.086 343.39 374.748 344.433C378.41 345.475 382.295 345.44 385.938 344.331C389.58 343.222 392.826 341.086 395.285 338.18C397.745 335.273 399.314 331.719 399.805 327.943L399.25 328.01Z" fill="#0A0220"/>
<path d="M339.301 333.816C336.986 333.809 334.706 334.381 332.668 335.481V336.12C334.717 334.954 337.037 334.347 339.395 334.361C341.752 334.375 344.065 335.008 346.1 336.198C348.135 337.388 349.822 339.092 350.991 341.139C352.16 343.186 352.77 345.505 352.76 347.862C352.75 350.22 352.12 352.533 350.933 354.571C349.747 356.608 348.046 358.297 346 359.469C343.955 360.642 341.637 361.255 339.279 361.249C336.922 361.242 334.607 360.616 332.568 359.433V360.071C334.439 361.1 336.52 361.687 338.652 361.787C340.784 361.888 342.911 361.5 344.87 360.652C346.829 359.804 348.568 358.519 349.954 356.896C351.34 355.272 352.336 353.353 352.866 351.286C353.397 349.218 353.447 347.056 353.013 344.966C352.579 342.876 351.673 340.913 350.364 339.227C349.055 337.541 347.378 336.177 345.46 335.239C343.543 334.301 341.436 333.814 339.301 333.816Z" fill="#0A0220"/>
<path d="M360.911 357.823C356.571 357.828 352.41 359.554 349.341 362.623C346.272 365.691 344.546 369.852 344.542 374.192C344.537 376.488 345.019 378.758 345.957 380.853L346.513 380.776C345.565 378.716 345.076 376.476 345.08 374.209C345.08 370.013 346.747 365.99 349.714 363.023C352.681 360.056 356.705 358.389 360.9 358.389C365.096 358.389 369.12 360.056 372.086 363.023C375.053 365.99 376.72 370.013 376.72 374.209C376.72 375.102 376.644 375.993 376.492 376.873L377.047 376.796C377.422 374.457 377.284 372.065 376.644 369.785C376.004 367.504 374.876 365.39 373.339 363.588C371.803 361.786 369.893 360.339 367.743 359.346C365.592 358.354 363.252 357.84 360.884 357.84L360.911 357.823Z" fill="#0A0220"/>
<path d="M399.162 350.435C397.954 350.435 396.773 350.793 395.769 351.464C394.765 352.135 393.983 353.089 393.52 354.204C393.058 355.32 392.937 356.548 393.173 357.732C393.409 358.917 393.99 360.004 394.844 360.858C395.698 361.712 396.786 362.294 397.97 362.529C399.155 362.765 400.382 362.644 401.498 362.182C402.614 361.72 403.567 360.937 404.238 359.933C404.909 358.929 405.267 357.749 405.267 356.541C405.267 354.922 404.624 353.368 403.479 352.223C402.334 351.078 400.781 350.435 399.162 350.435ZM399.162 362.042C398.064 362.042 396.99 361.716 396.078 361.106C395.165 360.496 394.453 359.629 394.033 358.615C393.613 357.601 393.503 356.485 393.717 355.408C393.932 354.331 394.46 353.342 395.237 352.566C396.013 351.79 397.002 351.261 398.079 351.047C399.155 350.833 400.271 350.943 401.286 351.363C402.3 351.783 403.167 352.494 403.777 353.407C404.387 354.32 404.712 355.393 404.712 356.491C404.712 357.963 404.127 359.375 403.086 360.416C402.046 361.457 400.634 362.042 399.162 362.042Z" fill="#0A0220"/>
<path d="M410.768 359.933C408.316 359.936 405.966 360.911 404.232 362.644C402.499 364.378 401.523 366.728 401.521 369.18C401.516 370.67 401.879 372.138 402.575 373.454L403.13 373.382C402.145 371.605 401.814 369.54 402.194 367.544C402.574 365.548 403.641 363.749 405.21 362.459C406.78 361.168 408.752 360.469 410.783 360.482C412.815 360.495 414.777 361.22 416.33 362.53V361.825C414.732 360.604 412.779 359.939 410.768 359.933Z" fill="#0A0220"/>
<path d="M322.65 235.157C320.925 235.157 319.239 235.668 317.805 236.626C316.371 237.585 315.253 238.946 314.593 240.54C313.933 242.133 313.761 243.887 314.097 245.578C314.434 247.27 315.264 248.824 316.484 250.043C317.703 251.263 319.257 252.093 320.949 252.43C322.64 252.766 324.394 252.593 325.987 251.933C327.58 251.273 328.942 250.156 329.901 248.722C330.859 247.288 331.37 245.602 331.37 243.877C331.367 241.565 330.448 239.349 328.813 237.714C327.178 236.079 324.962 235.16 322.65 235.157ZM322.65 252.037C321.035 252.037 319.456 251.558 318.113 250.66C316.77 249.763 315.724 248.487 315.106 246.995C314.488 245.503 314.327 243.86 314.642 242.276C314.958 240.692 315.736 239.238 316.878 238.096C318.021 236.954 319.476 236.177 321.06 235.862C322.645 235.548 324.287 235.711 325.778 236.329C327.27 236.948 328.545 237.996 329.442 239.339C330.338 240.683 330.816 242.262 330.815 243.877C330.812 246.041 329.951 248.116 328.42 249.645C326.889 251.175 324.814 252.035 322.65 252.037Z" fill="#0A0220"/>
<path d="M307.807 229.934L307.252 229.85C307.551 232.048 307.393 234.284 306.787 236.418C306.182 238.551 305.141 240.537 303.732 242.25C302.323 243.962 300.575 245.366 298.598 246.371C296.62 247.376 294.457 247.962 292.243 248.092C290.028 248.221 287.811 247.892 285.73 247.124C283.649 246.357 281.749 245.167 280.15 243.63C278.55 242.094 277.286 240.243 276.435 238.195C275.585 236.146 275.167 233.944 275.207 231.726C275.203 229.643 275.611 227.579 276.406 225.654L275.851 225.576C275.067 227.532 274.665 229.62 274.669 231.726C274.56 233.978 274.909 236.229 275.696 238.342C276.483 240.454 277.691 242.385 279.246 244.018C280.801 245.65 282.671 246.949 284.744 247.837C286.816 248.725 289.047 249.183 291.302 249.183C293.556 249.183 295.787 248.725 297.86 247.837C299.932 246.949 301.802 245.65 303.358 244.018C304.913 242.385 306.12 240.454 306.907 238.342C307.694 236.229 308.043 233.978 307.935 231.726C307.923 231.127 307.88 230.529 307.807 229.934Z" fill="#0A0220"/>
<path d="M319.757 272.353C318.157 272.352 316.577 272.706 315.131 273.389C313.684 274.072 312.407 275.067 311.391 276.302C310.375 277.538 309.645 278.984 309.255 280.535C308.865 282.087 308.823 283.705 309.133 285.275L309.727 285.391C309.563 284.663 309.481 283.918 309.483 283.171C309.481 281.552 309.863 279.956 310.595 278.512C311.328 277.069 312.391 275.819 313.698 274.864C315.006 273.91 316.52 273.278 318.118 273.019C319.716 272.761 321.353 272.884 322.894 273.378C324.436 273.873 325.839 274.724 326.988 275.863C328.138 277.003 329.003 278.398 329.511 279.934C330.02 281.471 330.158 283.106 329.915 284.707C329.672 286.307 329.054 287.827 328.111 289.144L328.7 289.266C329.935 287.47 330.593 285.34 330.587 283.16C330.578 280.292 329.433 277.545 327.404 275.52C325.374 273.494 322.625 272.355 319.757 272.353Z" fill="#0A0220"/>
<path d="M310.788 253.885C309.376 253.885 307.995 254.304 306.821 255.088C305.647 255.873 304.732 256.988 304.192 258.293C303.652 259.597 303.511 261.033 303.787 262.418C304.063 263.803 304.743 265.074 305.742 266.073C306.741 267.071 308.013 267.75 309.398 268.025C310.784 268.3 312.219 268.158 313.523 267.616C314.827 267.075 315.942 266.159 316.726 264.985C317.509 263.81 317.927 262.43 317.926 261.018C317.923 259.126 317.17 257.312 315.832 255.975C314.493 254.638 312.679 253.886 310.788 253.885ZM310.788 267.601C309.486 267.601 308.213 267.215 307.13 266.491C306.048 265.768 305.204 264.74 304.706 263.537C304.207 262.334 304.077 261.01 304.331 259.733C304.585 258.456 305.212 257.283 306.133 256.362C307.053 255.442 308.226 254.815 309.503 254.561C310.78 254.307 312.104 254.437 313.307 254.935C314.51 255.434 315.538 256.277 316.261 257.36C316.985 258.443 317.371 259.715 317.371 261.018C317.371 262.763 316.677 264.438 315.443 265.673C314.208 266.907 312.534 267.601 310.788 267.601Z" fill="#0A0220"/>
<path d="M287.246 274.928C286.09 276.294 285.383 277.983 285.223 279.766C285.063 281.548 285.458 283.336 286.353 284.886L286.447 283.854C285.882 282.585 285.651 281.193 285.775 279.809C285.899 278.426 286.375 277.097 287.157 275.949L287.246 274.928ZM293.907 271.825C291.654 271.822 289.488 272.696 287.868 274.262L287.79 275.139C289.073 273.694 290.826 272.751 292.739 272.478C294.651 272.204 296.599 272.617 298.235 273.644C299.872 274.67 301.091 276.244 301.677 278.085C302.262 279.926 302.176 281.915 301.434 283.698L301.989 283.809C302.523 282.486 302.724 281.052 302.575 279.633C302.426 278.214 301.93 276.853 301.133 275.67C300.335 274.487 299.259 273.517 297.999 272.847C296.739 272.177 295.334 271.826 293.907 271.825Z" fill="#0A0220"/>
<path d="M267.142 224.488L266.454 224.405C268.489 227.886 269.379 231.918 268.999 235.932C268.618 239.947 266.986 243.74 264.332 246.776C261.679 249.813 258.138 251.938 254.211 252.853C250.284 253.768 246.169 253.426 242.447 251.876L242.363 252.431C246.159 253.979 250.341 254.311 254.333 253.38C258.325 252.45 261.93 250.303 264.65 247.236C267.369 244.169 269.07 240.333 269.516 236.259C269.963 232.184 269.133 228.071 267.142 224.488Z" fill="#0A0220"/>
<path d="M274.913 256.261C273.396 256.261 271.914 256.71 270.653 257.553C269.393 258.396 268.41 259.593 267.83 260.994C267.25 262.395 267.099 263.937 267.395 265.424C267.691 266.911 268.422 268.277 269.494 269.349C270.567 270.421 271.933 271.15 273.421 271.445C274.908 271.74 276.449 271.588 277.85 271.007C279.251 270.426 280.447 269.442 281.289 268.181C282.131 266.92 282.579 265.437 282.578 263.921C282.575 261.889 281.767 259.942 280.33 258.506C278.892 257.07 276.944 256.262 274.913 256.261ZM274.913 271.009C273.506 271.009 272.132 270.592 270.962 269.811C269.793 269.029 268.882 267.919 268.343 266.62C267.805 265.32 267.664 263.891 267.939 262.511C268.213 261.132 268.89 259.865 269.885 258.871C270.879 257.876 272.146 257.199 273.525 256.925C274.905 256.65 276.334 256.791 277.634 257.329C278.933 257.868 280.044 258.779 280.825 259.948C281.606 261.118 282.023 262.492 282.023 263.899C282.022 265.784 281.272 267.592 279.939 268.925C278.606 270.258 276.798 271.008 274.913 271.009Z" fill="#0A0220"/>
<path d="M285.259 295.016C283.81 294.502 282.284 294.241 280.746 294.245C277.104 294.245 273.611 295.691 271.036 298.267C268.46 300.842 267.014 304.335 267.014 307.977C267.014 311.619 268.46 315.112 271.036 317.688C273.611 320.263 277.104 321.71 280.746 321.71C281.355 321.712 281.964 321.67 282.567 321.582C282.671 321.575 282.775 321.562 282.878 321.543L282.928 320.988L282.634 321.038C280.843 321.295 279.019 321.18 277.275 320.701C275.531 320.222 273.904 319.389 272.496 318.254C271.088 317.119 269.928 315.707 269.089 314.104C268.251 312.502 267.751 310.744 267.621 308.94C267.491 307.136 267.734 305.325 268.335 303.618C268.935 301.912 269.881 300.348 271.112 299.023C272.343 297.699 273.834 296.641 275.491 295.918C277.149 295.194 278.938 294.819 280.746 294.816C282.26 294.816 283.763 295.079 285.187 295.594L285.448 295.693L285.514 295.138C285.433 295.091 285.347 295.05 285.259 295.016Z" fill="#0A0220"/>
<path d="M246.687 265.492C244.543 265.488 242.413 265.827 240.376 266.496C240.348 266.696 240.32 266.902 240.287 267.107C243.49 266.01 246.921 265.754 250.251 266.363C253.581 266.972 256.7 268.425 259.307 270.585C261.915 272.744 263.925 275.536 265.144 278.694C266.364 281.853 266.752 285.271 266.272 288.623C265.792 291.974 264.459 295.146 262.402 297.835C260.345 300.524 257.632 302.639 254.523 303.98C251.414 305.32 248.013 305.839 244.646 305.489C241.278 305.138 238.057 303.929 235.291 301.977C235.291 302.182 235.23 302.388 235.208 302.593C237.835 304.388 240.847 305.541 244.002 305.958C247.156 306.376 250.364 306.048 253.368 304.999C256.372 303.95 259.088 302.211 261.297 299.921C263.506 297.631 265.146 294.854 266.086 291.814C267.025 288.774 267.238 285.556 266.707 282.419C266.175 279.282 264.915 276.314 263.026 273.753C261.138 271.192 258.675 269.11 255.835 267.675C252.995 266.241 249.858 265.493 246.676 265.492H246.687Z" fill="#0A0220"/>
<path d="M254.336 314.561C252.403 314.561 250.513 315.134 248.906 316.208C247.298 317.282 246.045 318.809 245.306 320.595C244.566 322.381 244.372 324.346 244.749 326.242C245.127 328.139 246.057 329.88 247.425 331.247C248.792 332.614 250.533 333.545 252.429 333.923C254.326 334.3 256.291 334.106 258.077 333.366C259.863 332.626 261.39 331.374 262.464 329.766C263.538 328.159 264.111 326.269 264.111 324.335C264.108 321.744 263.078 319.259 261.245 317.427C259.413 315.594 256.928 314.563 254.336 314.561ZM254.336 333.555C252.513 333.555 250.73 333.015 249.214 332.001C247.698 330.988 246.516 329.548 245.818 327.864C245.121 326.179 244.938 324.325 245.294 322.537C245.65 320.748 246.528 319.105 247.817 317.816C249.106 316.527 250.749 315.649 252.538 315.293C254.326 314.937 256.18 315.12 257.865 315.817C259.549 316.515 260.989 317.697 262.002 319.213C263.016 320.729 263.556 322.512 263.556 324.335C263.553 326.78 262.581 329.123 260.853 330.852C259.124 332.58 256.781 333.552 254.336 333.555Z" fill="#0A0220"/>
<path d="M231.999 324.974C231.966 325.168 231.938 325.362 231.916 325.529C233.353 326.256 234.614 327.288 235.611 328.554C236.607 329.819 237.316 331.287 237.686 332.854C238.056 334.422 238.079 336.051 237.753 337.629C237.428 339.206 236.762 340.694 235.802 341.987H236.479C237.819 340.052 238.532 337.752 238.522 335.398C238.514 333.225 237.899 331.098 236.747 329.256C235.594 327.414 233.95 325.931 231.999 324.974ZM230.462 346.25V346.472C230.678 346.405 230.895 346.327 231.1 346.244L230.462 346.25Z" fill="#0A0220"/>
<path d="M274.119 327.482C272.437 327.485 270.794 327.99 269.4 328.932C268.006 329.874 266.925 331.21 266.295 332.77C265.665 334.33 265.515 336.043 265.863 337.688C266.212 339.334 267.044 340.838 268.252 342.009H269.074C268.147 341.239 267.409 340.267 266.916 339.169C266.422 338.07 266.187 336.873 266.226 335.669C266.266 334.465 266.581 333.287 267.146 332.223C267.711 331.159 268.511 330.239 269.486 329.531C270.461 328.824 271.585 328.35 272.772 328.143C273.958 327.937 275.176 328.004 276.333 328.34C277.49 328.677 278.554 329.273 279.445 330.083C280.336 330.894 281.03 331.897 281.474 333.017L281.591 331.956C280.867 330.604 279.79 329.474 278.474 328.686C277.158 327.898 275.653 327.482 274.119 327.482ZM279.176 342.009H280.003C280.181 341.837 280.353 341.654 280.514 341.454L280.63 340.388C280.225 340.995 279.735 341.54 279.176 342.009Z" fill="#0A0220"/>
<path d="M421.047 326.434L418.827 371.845L443.251 373.049L457.96 388.591L460.924 328.421C460.924 328.421 421.48 326.073 421.047 326.434Z" fill="#D19727"/>
<path d="M360.894 149.902C358.28 149.902 355.723 150.663 353.534 152.092C351.346 153.522 349.621 155.557 348.571 157.951C347.505 157.34 346.297 157.02 345.069 157.024C343.636 157.021 342.237 157.453 341.055 158.262C339.549 156.576 337.584 155.367 335.4 154.782C333.216 154.198 330.909 154.264 328.762 154.972C326.616 155.681 324.722 157.001 323.315 158.77C321.908 160.539 321.049 162.681 320.842 164.932C320.635 167.183 321.09 169.446 322.151 171.442C323.212 173.438 324.833 175.081 326.815 176.169C328.796 177.257 331.052 177.742 333.306 177.566C335.56 177.389 337.713 176.558 339.501 175.175C339.501 175.236 339.501 175.297 339.54 175.358C339.579 175.419 339.579 175.547 339.601 175.636C339.954 177.036 340.707 178.303 341.77 179.281C342.832 180.259 344.157 180.906 345.582 181.142C347.006 181.377 348.469 181.192 349.79 180.608C351.111 180.025 352.232 179.068 353.017 177.856C353.462 177.175 353.791 176.425 353.989 175.636C354.016 175.545 354.037 175.452 354.05 175.358C354.076 175.267 354.094 175.174 354.105 175.081V174.981C355.89 176.022 357.891 176.637 359.953 176.78C362.015 176.923 364.081 176.589 365.993 175.804C367.905 175.019 369.61 173.805 370.976 172.255C372.343 170.704 373.334 168.86 373.873 166.865C374.411 164.87 374.483 162.778 374.083 160.75C373.683 158.723 372.82 156.815 371.564 155.175C370.307 153.534 368.689 152.205 366.836 151.291C364.983 150.377 362.944 149.901 360.877 149.902H360.894ZM353.483 175.358C353.17 176.724 352.446 177.962 351.408 178.905C350.371 179.847 349.069 180.45 347.679 180.631C346.289 180.812 344.877 180.564 343.632 179.919C342.388 179.274 341.37 178.264 340.717 177.023L342.687 175.358L346.018 172.511L353.589 174.77C353.565 174.968 353.529 175.164 353.483 175.358Z" fill="#CD4E07"/>
</svg>
