<svg width="292" height="376" viewBox="0 0 292 376" fill="none" xmlns="http://www.w3.org/2000/svg">
<path d="M342.611 120.426C344.32 133.009 348.854 145.157 355.943 156.152C376.635 157.44 395.14 159.569 410.394 161.777L410.246 167.035C396.027 164.932 378.793 162.908 359.579 161.567C372.526 179.969 390.972 195.742 409.3 208.202L409.123 215.037C388.105 201.052 366.407 182.887 352.189 161.12C284.731 157.256 195.251 162.829 122.414 204.68C78.9005 229.68 45.8517 264.932 23.5038 309.833C52.5915 304.417 84.8126 312.461 119.694 333.623L112.127 335.411C78.6344 315.984 47.98 309.412 20.4886 315.826C13.6779 330.533 8.08587 345.663 3.75726 361.095L-2.74608 362.619C1.37848 347.408 6.70272 332.475 13.1871 317.929C-15.9893 327.446 -36.8295 351.158 -50.8708 374.081L-59 376C-44.2197 350.316 -20.7781 322.398 13.6601 312.172L16.1432 311.489C38.9049 263.723 73.3431 226.446 119.103 200.158C191.822 158.36 280.741 152.13 348.701 155.468C342.296 144.653 338.187 132.881 336.581 120.742C331.614 80.547 357.657 39.9843 414 0V6.86122C361.825 45.0054 337.822 83.0444 342.611 120.426Z" fill="#D19727"/>
</svg>
